# xmcd
#
# Track frame offsets:
#	187
#	26665
#	51727
#	73480
#	91697
#	115105
#	140157
#	144775
#	150737
#	168457
#
# Disc length: 2426 seconds
#
# Revision: 1
# Processed by: cddbd v1.5.1PL0 Copyright (c) Steve Scherf et al.
# Submitted via: CDex 1.50Beta5
#
DISCID=9009780a
DTITLE=PRISM - SILENCE OF THE MOTION,THE
DYEAR=1991
DGENRE=Jazz
TTITLE0=SUSPENSIBLE THE FOURTH
TTITLE1=IN THE AFTERNOON
TTITLE2=AND IN THE EVENING
TTITLE3=COME ON
TTITLE4=SOMEBODY LIKE YOU
TTITLE5=OPPOSITELY MAYBE
TTITLE6=CREW’S BLUES,THE
TTITLE7=STILL
TTITLE8=YOU’RE STILL DANCIN’
TTITLE9=BALLROOM IN T.V,THE
EXTD=
EXTT0=
EXTT1=
EXTT2=
EXTT3=
EXTT4=
EXTT5=
EXTT6=
EXTT7=
EXTT8=
EXTT9=
PLAYORDER=
